<svg width="21" height="18" viewBox="0 0 21 18" fill="none" xmlns="http://www.w3.org/2000/svg">
<path d="M20.3333 8V17C20.3333 17.2652 20.228 17.5196 20.0404 17.7071C19.8529 17.8946 19.5985 18 19.3333 18H1.33331C1.0681 18 0.813743 17.8946 0.626206 17.7071C0.43867 17.5196 0.333313 17.2652 0.333313 17V8H20.3333ZM20.3333 4H0.333313V1C0.333313 0.734784 0.43867 0.48043 0.626206 0.292893C0.813743 0.105357 1.0681 0 1.33331 0H19.3333C19.5985 0 19.8529 0.105357 20.0404 0.292893C20.228 0.48043 20.3333 0.734784 20.3333 1V4Z" fill="#9B9BAB"/>
</svg>
