<svg width="21" height="20" viewBox="0 0 21 20" fill="none" xmlns="http://www.w3.org/2000/svg">
<path d="M12.3333 9.12042e-07C14.1633 -0.000872552 15.9382 0.625667 17.3622 1.77513C18.7861 2.92458 19.7729 4.52748 20.158 6.31647C20.5431 8.10546 20.3032 9.97241 19.4784 11.6059C18.6535 13.2395 17.2936 14.5408 15.6253 15.293C15.0921 16.4719 14.2808 17.5039 13.2612 18.3004C12.2415 19.097 11.0439 19.6343 9.77094 19.8663C8.49802 20.0984 7.18781 20.0182 5.95267 19.6327C4.71754 19.2472 3.59435 18.5678 2.67942 17.6529C1.76449 16.738 1.08514 15.6148 0.699623 14.3796C0.314105 13.1445 0.233928 11.8343 0.465967 10.5614C0.698007 9.28844 1.23534 8.0908 2.03188 7.07114C2.82842 6.05148 3.8604 5.24024 5.03931 4.707C5.67345 3.30389 6.69889 2.1135 7.99265 1.27861C9.28641 0.443714 10.7935 -0.000237065 12.3333 9.12042e-07ZM8.33331 6C7.54538 6 6.76516 6.1552 6.03721 6.45672C5.30925 6.75825 4.64782 7.20021 4.09067 7.75736C3.53352 8.31451 3.09156 8.97595 2.79003 9.7039C2.4885 10.4319 2.33331 11.2121 2.33331 12C2.33331 12.7879 2.4885 13.5681 2.79003 14.2961C3.09156 15.0241 3.53352 15.6855 4.09067 16.2426C4.64782 16.7998 5.30925 17.2417 6.03721 17.5433C6.76516 17.8448 7.54538 18 8.33331 18C9.92461 18 11.4507 17.3679 12.5759 16.2426C13.7012 15.1174 14.3333 13.5913 14.3333 12C14.3333 10.4087 13.7012 8.88258 12.5759 7.75736C11.4507 6.63214 9.92461 6 8.33331 6ZM9.33331 7V8H11.3333V10H7.33331C7.20836 9.99977 7.08786 10.0463 6.99552 10.1305C6.90319 10.2147 6.84572 10.3304 6.83443 10.4548C6.82314 10.5793 6.85885 10.7034 6.93453 10.8028C7.0102 10.9023 7.12036 10.9697 7.24331 10.992L7.33331 11H9.33331C9.99635 11 10.6322 11.2634 11.1011 11.7322C11.5699 12.2011 11.8333 12.837 11.8333 13.5C11.8333 14.163 11.5699 14.7989 11.1011 15.2678C10.6322 15.7366 9.99635 16 9.33331 16V17H7.33331V16H5.33331V14H9.33331C9.45825 14.0002 9.57876 13.9537 9.67109 13.8695C9.76342 13.7853 9.82089 13.6696 9.83218 13.5452C9.84347 13.4207 9.80776 13.2966 9.73209 13.1972C9.65641 13.0977 9.54625 13.0303 9.42331 13.008L9.33331 13H7.33331C6.67027 13 6.03438 12.7366 5.56554 12.2678C5.0967 11.7989 4.83331 11.163 4.83331 10.5C4.83331 9.83696 5.0967 9.20107 5.56554 8.73223C6.03438 8.26339 6.67027 8 7.33331 8V7H9.33331ZM12.3333 2C11.486 1.99901 10.6481 2.17794 9.87513 2.52496C9.10214 2.87198 8.41164 3.37918 7.84931 4.013C8.97957 3.94439 10.1115 4.1165 11.1703 4.51795C12.2291 4.9194 13.1906 5.54105 13.9913 6.34178C14.7919 7.14252 15.4134 8.1041 15.8148 9.16293C16.2161 10.2218 16.3881 11.3537 16.3193 12.484C17.2285 11.6756 17.8705 10.6099 18.1601 9.42831C18.4497 8.24668 18.3733 7.00492 17.9409 5.86772C17.5086 4.73053 16.7407 3.75164 15.7392 3.06088C14.7377 2.37013 13.5499 2.00014 12.3333 2Z" fill="#9B9BAB"/>
</svg>
