<svg width="20" height="20" viewBox="0 0 20 20" fill="none" xmlns="http://www.w3.org/2000/svg">
<path d="M1.5 20C1.23478 20 0.98043 19.8946 0.792893 19.7071C0.605357 19.5196 0.5 19.2652 0.5 19V1C0.5 0.734784 0.605357 0.48043 0.792893 0.292893C0.98043 0.105357 1.23478 0 1.5 0H15.5C15.7652 0 16.0196 0.105357 16.2071 0.292893C16.3946 0.48043 16.5 0.734784 16.5 1V4H14.5V2H2.5V18H14.5V16H16.5V19C16.5 19.2652 16.3946 19.5196 16.2071 19.7071C16.0196 19.8946 15.7652 20 15.5 20H1.5ZM14.5 14V11H7.5V9H14.5V6L19.5 10L14.5 14Z" fill="#373743"/>
</svg>
