<svg width="21" height="20" viewBox="0 0 21 20" fill="none" xmlns="http://www.w3.org/2000/svg">
<path d="M4.5 17H1.5C1.23478 17 0.98043 16.8946 0.792893 16.7071C0.605357 16.5196 0.5 16.2652 0.5 16V6C0.5 5.73478 0.605357 5.48043 0.792893 5.29289C0.98043 5.10536 1.23478 5 1.5 5H4.5V1C4.5 0.734784 4.60536 0.48043 4.79289 0.292893C4.98043 0.105357 5.23478 0 5.5 0H15.5C15.7652 0 16.0196 0.105357 16.2071 0.292893C16.3946 0.48043 16.5 0.734784 16.5 1V5H19.5C19.7652 5 20.0196 5.10536 20.2071 5.29289C20.3946 5.48043 20.5 5.73478 20.5 6V16C20.5 16.2652 20.3946 16.5196 20.2071 16.7071C20.0196 16.8946 19.7652 17 19.5 17H16.5V19C16.5 19.2652 16.3946 19.5196 16.2071 19.7071C16.0196 19.8946 15.7652 20 15.5 20H5.5C5.23478 20 4.98043 19.8946 4.79289 19.7071C4.60536 19.5196 4.5 19.2652 4.5 19V17ZM4.5 15V14C4.5 13.7348 4.60536 13.4804 4.79289 13.2929C4.98043 13.1054 5.23478 13 5.5 13H15.5C15.7652 13 16.0196 13.1054 16.2071 13.2929C16.3946 13.4804 16.5 13.7348 16.5 14V15H18.5V7H2.5V15H4.5ZM6.5 2V5H14.5V2H6.5ZM6.5 15V18H14.5V15H6.5ZM3.5 8H6.5V10H3.5V8Z" fill="#373743"/>
</svg>
